# MagicaVoxel @ Ephtracy

# group
g lit

# material
mtllib lit.mtl
usemtl palette

# normals
vn -1 0 0
vn 1 0 0
vn 0 0 1
vn 0 0 -1
vn 0 -1 0
vn 0 1 0

# texcoords
vt 0.158203 0.5
vt 0.537109 0.5
vt 0.560547 0.5
vt 0.873047 0.5

# verts
v -8 15 -0
v -8 15 -4
v -8 16 -0
v -8 16 -4
v -7 0 -1
v -7 0 -3
v -7 15 -1
v -7 15 -3
v -7 16 -1
v -7 16 -3
v -7 17 -1
v -7 17 -3
v -7 19 -1
v -7 19 -3
v -5 0 -1
v -5 0 -3
v -5 15 -1
v -5 15 -3
v -5 16 -1
v -5 16 -3
v -5 17 -1
v -5 17 -3
v -5 19 -1
v -5 19 -3
v -4 15 -0
v -4 15 -4
v -4 16 -0
v -4 16 -4
v -8 15 -0
v -8 16 -0
v -4 15 -0
v -4 16 -0
v -7 0 -1
v -7 15 -1
v -7 16 -1
v -7 17 -1
v -7 19 -1
v -5 0 -1
v -5 15 -1
v -5 16 -1
v -5 17 -1
v -5 19 -1
v -7 0 -3
v -7 15 -3
v -7 16 -3
v -7 17 -3
v -7 19 -3
v -5 0 -3
v -5 15 -3
v -5 16 -3
v -5 17 -3
v -5 19 -3
v -8 15 -4
v -8 16 -4
v -4 15 -4
v -4 16 -4
v -7 0 -1
v -5 0 -1
v -7 0 -3
v -5 0 -3
v -8 15 -0
v -4 15 -0
v -7 15 -1
v -5 15 -1
v -7 15 -3
v -5 15 -3
v -8 15 -4
v -4 15 -4
v -8 16 -0
v -4 16 -0
v -7 16 -1
v -5 16 -1
v -7 16 -3
v -5 16 -3
v -8 16 -4
v -4 16 -4
v -7 19 -1
v -5 19 -1
v -7 19 -3
v -5 19 -3

# faces
f 3/2/1 2/2/1 1/2/1
f 4/2/1 2/2/1 3/2/1
f 7/4/1 6/4/1 5/4/1
f 8/4/1 6/4/1 7/4/1
f 11/3/1 10/3/1 9/3/1
f 12/3/1 10/3/1 11/3/1
f 13/1/1 12/1/1 11/1/1
f 14/1/1 12/1/1 13/1/1
f 15/4/2 16/4/2 17/4/2
f 17/4/2 16/4/2 18/4/2
f 19/3/2 20/3/2 21/3/2
f 21/3/2 20/3/2 22/3/2
f 21/1/2 22/1/2 23/1/2
f 23/1/2 22/1/2 24/1/2
f 25/2/2 26/2/2 27/2/2
f 27/2/2 26/2/2 28/2/2
f 31/2/3 30/2/3 29/2/3
f 32/2/3 30/2/3 31/2/3
f 38/4/3 34/4/3 33/4/3
f 39/4/3 34/4/3 38/4/3
f 40/3/3 36/3/3 35/3/3
f 41/1/3 37/1/3 36/1/3
f 41/3/3 36/3/3 40/3/3
f 42/1/3 37/1/3 41/1/3
f 43/4/4 44/4/4 48/4/4
f 48/4/4 44/4/4 49/4/4
f 45/3/4 46/3/4 50/3/4
f 46/1/4 47/1/4 51/1/4
f 50/3/4 46/3/4 51/3/4
f 51/1/4 47/1/4 52/1/4
f 53/2/4 54/2/4 55/2/4
f 55/2/4 54/2/4 56/2/4
f 59/4/5 58/4/5 57/4/5
f 60/4/5 58/4/5 59/4/5
f 63/2/5 62/2/5 61/2/5
f 64/2/5 62/2/5 63/2/5
f 65/2/5 63/2/5 61/2/5
f 66/2/5 62/2/5 64/2/5
f 67/2/5 65/2/5 61/2/5
f 67/2/5 66/2/5 65/2/5
f 68/2/5 62/2/5 66/2/5
f 68/2/5 66/2/5 67/2/5
f 69/2/6 70/2/6 71/2/6
f 71/2/6 70/2/6 72/2/6
f 69/2/6 71/2/6 73/2/6
f 72/2/6 70/2/6 74/2/6
f 69/2/6 73/2/6 75/2/6
f 73/2/6 74/2/6 75/2/6
f 74/2/6 70/2/6 76/2/6
f 75/2/6 74/2/6 76/2/6
f 77/1/6 78/1/6 79/1/6
f 79/1/6 78/1/6 80/1/6
